<svg width="49" height="58" viewBox="0 0 49 58" fill="none" xmlns="http://www.w3.org/2000/svg">
<path d="M36.8776 30.9329H11.3373C7.77059 30.9329 4.87262 28.034 4.87262 24.466V17.9991C4.87262 8.05976 12.9615 0 22.8655 0H25.3813C35.3172 0 43.3742 8.09162 43.3742 17.9991V24.466C43.3423 28.034 40.4444 30.9329 36.8776 30.9329ZM22.8336 5.54308C15.9868 5.54308 10.3819 11.118 10.3819 17.9991V24.466C10.3819 24.9757 10.7959 25.3898 11.3055 25.3898H36.8458C37.3553 25.3898 37.7693 24.9757 37.7693 24.466V17.9991C37.7693 11.1499 32.1963 5.54308 25.3176 5.54308H22.8336Z" fill="#5900CC"/>
<path d="M48.2782 38.2282C48.2782 24.8802 37.4825 14.0807 24.1391 14.0807C10.7957 14.0807 0 24.8802 0 38.2282C0 51.5762 10.7957 57.4697 24.1391 57.4697C37.4507 57.4697 48.2782 51.5762 48.2782 38.2282Z" fill="#8B34FF"/>
</svg>
